<?xml version="1.0" standalone="no"?>
<!DOCTYPE svg PUBLIC "-//W3C//DTD SVG 20010904//EN"
 "http://www.w3.org/TR/2001/REC-SVG-20010904/DTD/svg10.dtd">
<svg version="1.0" xmlns="http://www.w3.org/2000/svg"
 width="256.000000pt" height="256.000000pt" viewBox="0 0 256.000000 256.000000"
 preserveAspectRatio="xMidYMid meet">

<g transform="translate(0.000000,256.000000) scale(0.100000,-0.100000)"
fill="#000000" stroke="none">
<path d="M379 2224 c-63 -19 -113 -75 -128 -143 -15 -70 -15 -1560 0 -1614 12
-44 59 -101 103 -125 28 -16 89 -17 686 -17 729 0 683 -4 748 69 42 48 52 91
52 219 l0 107 148 0 c167 0 208 8 258 52 71 62 69 52 69 458 0 201 -3 377 -8
393 -11 41 -73 104 -115 118 -21 7 -99 13 -177 14 -77 1 -148 3 -157 4 -16 1
-18 15 -18 144 0 167 -13 223 -62 274 -61 63 -64 63 -742 62 -499 0 -619 -3
-657 -15z m1340 -90 c17 -14 35 -42 41 -62 15 -55 13 -297 -2 -309 -11 -8 -94
-11 -144 -4 -8 0 -13 31 -15 80 -5 92 -24 128 -80 148 -44 15 -896 18 -951 3
-67 -19 -78 -45 -78 -189 0 -208 -16 -201 447 -201 l348 0 0 -368 c0 -408 -2
-398 69 -460 50 -44 91 -52 259 -52 l147 0 0 -115 c0 -178 -23 -205 -174 -205
-85 0 -86 0 -101 30 -9 17 -27 35 -41 40 -33 13 -775 13 -808 0 -14 -5 -32
-23 -41 -40 -15 -30 -16 -30 -101 -30 -56 0 -95 5 -114 15 -62 32 -60 -4 -60
876 l0 801 34 34 34 34 650 0 650 0 31 -26z m-201 -295 l3 -76 -46 -6 c-49 -7
-114 -36 -134 -61 -12 -14 -59 -16 -385 -16 -276 0 -375 3 -384 12 -13 13 -18
209 -5 221 3 4 218 6 477 5 l471 -3 3 -76z m688 -195 l34 -35 0 -360 c0 -395
-1 -404 -60 -434 -43 -22 -717 -22 -760 0 -59 30 -60 39 -60 436 l0 361 34 34
34 34 372 0 373 0 33 -36z"/>
<path d="M530 1428 c-41 -22 -51 -54 -48 -160 4 -135 12 -142 152 -146 98 -4
104 -2 132 21 29 25 29 26 29 136 0 102 -2 112 -23 133 -20 20 -34 23 -120 26
-65 2 -105 -2 -122 -10z m190 -148 l0 -80 -80 0 -80 0 0 80 0 80 80 0 80 0 0
-80z"/>
<path d="M930 1428 c-41 -22 -51 -54 -48 -160 3 -86 6 -100 26 -120 21 -21 31
-23 133 -23 110 0 111 0 136 29 23 28 25 34 21 132 -4 140 -11 148 -146 152
-65 2 -105 -2 -122 -10z m190 -148 l0 -80 -80 0 -80 0 0 80 0 80 80 0 80 0 0
-80z"/>
<path d="M534 1031 c-43 -19 -54 -49 -54 -154 0 -96 1 -99 29 -128 29 -28 32
-29 131 -29 100 0 102 1 132 30 l30 30 -4 105 c-4 142 -11 149 -146 152 -53 2
-107 -1 -118 -6z m186 -151 l0 -80 -80 0 -80 0 0 80 0 80 80 0 80 0 0 -80z"/>
<path d="M930 1028 c-39 -21 -50 -55 -50 -156 0 -90 1 -95 29 -123 29 -28 32
-29 131 -29 99 0 102 1 131 29 28 29 29 32 29 130 0 91 -2 102 -24 128 -23 27
-29 28 -123 31 -66 2 -106 -2 -123 -10z m190 -148 l0 -80 -80 0 -80 0 0 80 0
80 80 0 80 0 0 -80z"/>
<path d="M647 1834 c-4 -4 -7 -22 -7 -41 l0 -33 81 0 80 0 -3 38 -3 37 -70 3
c-39 1 -74 0 -78 -4z"/>
<path d="M887 1834 c-4 -4 -7 -22 -7 -41 l0 -33 81 0 80 0 -3 38 -3 37 -70 3
c-39 1 -74 0 -78 -4z"/>
<path d="M1127 1834 c-4 -4 -7 -22 -7 -41 l0 -33 81 0 80 0 -3 38 -3 37 -70 3
c-39 1 -74 0 -78 -4z"/>
<path d="M1567 1594 c-4 -4 -7 -31 -7 -60 l0 -53 -57 -3 -58 -3 0 -35 0 -35
57 -3 57 -3 3 -57 3 -57 35 0 35 0 3 57 3 57 57 3 57 3 0 35 0 35 -57 3 -57 3
-3 57 c-3 55 -4 57 -33 60 -17 2 -34 0 -38 -4z"/>
<path d="M1964 1586 c-3 -8 -4 -25 -2 -38 2 -19 9 -23 38 -23 33 0 35 2 35 35
0 32 -3 35 -33 38 -21 2 -34 -2 -38 -12z"/>
<path d="M1840 1440 l0 -41 158 3 157 3 0 35 0 35 -157 3 -158 3 0 -41z"/>
<path d="M1967 1354 c-4 -4 -7 -23 -7 -41 0 -33 1 -34 38 -31 35 3 37 5 37 38
0 32 -3 35 -30 38 -17 2 -34 0 -38 -4z"/>
<path d="M1887 1152 c-23 -26 -22 -31 20 -74 l37 -38 -39 -40 c-41 -42 -42
-59 -2 -84 13 -8 25 -3 57 29 l40 39 40 -39 c42 -41 59 -42 84 -2 8 13 3 25
-29 57 l-39 40 39 40 c32 32 37 44 29 57 -25 40 -42 39 -84 -2 l-40 -39 -38
37 c-43 42 -52 44 -75 19z"/>
<path d="M1447 1074 c-4 -4 -7 -22 -7 -41 l0 -34 158 3 157 3 0 35 0 35 -151
3 c-82 1 -153 -1 -157 -4z"/>
</g>
</svg>
